PathFileType	4	(X/Y/Z)	/Users/itak/Documents/Research/Walk-IL/dataset/trc/00104_00007.trc
DataRate	CameraRate	NumFrames	NumMarkers	Units	OrigDataRate	OrigDataStartFrame	OrigNumFrames
100.000000	100.000000	4	53	mm	100.000000	75	604
Frame#	Time	RPSI			LPSI			L3			STRN			T10			C7			CLAV			RBAK			LBAK			LSHO			LUPA			LAEL			LAOL			LWTS			LWPS			LFRA			LIFD			LHPS			LHTS			RSHO			RUPA			RAEL			RAOL			RWTS			RWPS			RFRA			RIFD			RHTS			RHPS			RBHD			LFHD			RFHD			LBHD			LHIP			RHIP			RASI			LASI			LKNE			LTHI			LANK			LTIP			LTOE			LMT1			LMT5			LHEE			RKNE			RTHI			RANK			RTIP			RTOE			RMT1			RMT5			RHEE			
		X1	Y1	Z1	X2	Y2	Z2	X3	Y3	Z3	X4	Y4	Z4	X5	Y5	Z5	X6	Y6	Z6	X7	Y7	Z7	X8	Y8	Z8	X9	Y9	Z9	X10	Y10	Z10	X11	Y11	Z11	X12	Y12	Z12	X13	Y13	Z13	X14	Y14	Z14	X15	Y15	Z15	X16	Y16	Z16	X17	Y17	Z17	X18	Y18	Z18	X19	Y19	Z19	X20	Y20	Z20	X21	Y21	Z21	X22	Y22	Z22	X23	Y23	Z23	X24	Y24	Z24	X25	Y25	Z25	X26	Y26	Z26	X27	Y27	Z27	X28	Y28	Z28	X29	Y29	Z29	X30	Y30	Z30	X31	Y31	Z31	X32	Y32	Z32	X33	Y33	Z33	X34	Y34	Z34	X35	Y35	Z35	X36	Y36	Z36	X37	Y37	Z37	X38	Y38	Z38	X39	Y39	Z39	X40	Y40	Z40	X41	Y41	Z41	X42	Y42	Z42	X43	Y43	Z43	X44	Y44	Z44	X45	Y45	Z45	X46	Y46	Z46	X47	Y47	Z47	X48	Y48	Z48	X49	Y49	Z49	X50	Y50	Z50	X51	Y51	Z51	X52	Y52	Z52	X53	Y53	Z53	

76	0.75	-1926.5498046875	1123.6650390625	-258.571533203125	-1931.354370117188	1124.817138671875	-392.7373352050781	-1936.901000976562	1156.371704101562	-328.38671875	-1726.1484375	1360.63330078125	-335.0513610839844	-1978.559448242188	1305.433715820312	-327.7125244140625	-1946.959350585938	1598.8408203125	-341.819580078125	-1762.847290039062	1495.546875	-336.1801147460938	-1998.152221679688	1413.529541015625	-254.8350830078125	-1956.020263671875	1579.552001953125	-444.1027221679688	-1869.289794921875	1567.270263671875	-513.2334594726562	-1885.988037109375	1435.196166992188	-583.4358520507812	-1862.2763671875	1214.8017578125	-602.521728515625	-1931.700073242188	1201.365356445312	-550.4408569335938	-1758.125610351562	961.0548095703125	-547.0548706054688	-1836.094848632812	932.8005981445312	-580.3038330078125	-1841.73583984375	1099.255859375	-603.1995849609375	-1744.9169921875	768.3978881835938	-519.7374877929688	-1804.292602539062	858.6920776367188	-577.2821655273438	-1739.30517578125	871.7429809570312	-554.6869506835938	-1889.633422851562	1579.739501953125	-161.3178253173828	-1904.468383789062	1506.019165039062	-97.83327484130859	-1908.563598632812	1210.763549804688	-76.91730499267578	-1917.37255859375	1210.0185546875	-173.506103515625	-1755.458984375	973.489990234375	-97.15312957763672	-1829.224487304688	953.1943359375	-62.94940185546875	-1881.293090820312	1137.902954101562	-62.89395141601562	-1726.398803710938	779.3507080078125	-121.083366394043	-1722.262329101562	864.5147094726562	-96.10504913330078	-1788.907592773438	854.1802368164062	-63.49891662597656	-1909.396728515625	1768.631958007812	-260.4305114746094	-1748.562744140625	1844.830688476562	-392.0630187988281	-1748.252197265625	1845.54443359375	-262.1482238769531	-1916.486328125	1771.486572265625	-395.5701293945312	-1841.886352539062	1037.12353515625	-503.0906372070312	-1794.547485351562	1029.83837890625	-147.0310516357422	-1715.374633789062	1104.225830078125	-201.9081268310547	-1732.327392578125	1104.505981445312	-467.0595092773438	-1815.4599609375	535.7864379882812	-475.8089599609375	-1835.436645507812	682.1018676757812	-502.10888671875	-1941.590942382812	38.41161727905273	-467.0050354003906	-1924.47705078125	291.7322387695312	-499.6573181152344	-1709.852294921875	36.70318984985352	-411.662353515625	-1791.477905273438	40.53377914428711	-378.1091918945312	-1817.123901367188	33.47595977783203	-495.1762084960938	-2009.708618164062	38.5518913269043	-403.0485229492188	-1806.642822265625	537.312744140625	-177.9582366943359	-1779.756225585938	815.3516235351562	-152.6034545898438	-1923.719970703125	29.43085479736328	-182.5876922607422	-1836.13330078125	404.338134765625	-164.6975402832031	-1695.635375976562	40.89073181152344	-250.6454162597656	-1757.762939453125	31.15891647338867	-289.9255676269531	-1789.22021484375	36.28611373901367	-169.988525390625	-1984.34619140625	33.20290756225586	-226.2513580322266	
77	0.76	-1926.502075195312	1123.658203125	-258.6361083984375	-1931.27734375	1124.80859375	-392.8147277832031	-1936.835571289062	1156.36865234375	-328.4651489257812	-1726.090576171875	1360.605102539062	-335.0571899414062	-1978.43505859375	1305.362426757812	-327.7548522949219	-1946.805908203125	1598.842163085938	-341.9405822753906	-1762.73046875	1495.539794921875	-336.1702270507812	-1998.112060546875	1413.520263671875	-254.968017578125	-1955.800903320312	1579.55859375	-444.2021484375	-1869.109252929688	1567.298461914062	-513.2703857421875	-1885.737670898438	1435.225463867188	-583.5030517578125	-1861.888549804688	1214.809448242188	-602.5380249023438	-1931.35595703125	1201.338134765625	-550.5289916992188	-1757.469848632812	961.2431640625	-546.859375	-1835.37060546875	932.8435668945312	-580.1758422851562	-1841.218872070312	1099.281860351562	-603.1431274414062	-1743.8759765625	768.6690673828125	-519.3804931640625	-1803.457763671875	858.7884521484375	-577.0664672851562	-1738.535522460938	871.9464111328125	-554.4135131835938	-1889.590209960938	1579.724487304688	-161.3548736572266	-1904.466674804688	1505.975219726562	-97.90191650390625	-1908.616943359375	1210.748413085938	-77.02158355712891	-1917.453857421875	1210.003173828125	-173.6855316162109	-1755.74560546875	973.387451171875	-97.33206939697266	-1829.46875	953.145263671875	-63.09691619873047	-1881.425415039062	1137.885009765625	-63.057373046875	-1726.720092773438	779.2489013671875	-121.2152404785156	-1722.593505859375	864.3770141601562	-96.29212188720703	-1789.211181640625	854.0443725585938	-63.66461181640625	-1909.268432617188	1768.642944335938	-260.4701232910156	-1748.422729492188	1844.797485351562	-392.0639038085938	-1748.13330078125	1845.502685546875	-262.1239013671875	-1916.292114257812	1771.50439453125	-395.57666015625	-1841.756958007812	1037.108764648438	-503.1227111816406	-1794.525390625	1029.829711914062	-147.0563354492188	-1715.337280273438	1104.2119140625	-201.9116058349609	-1732.208740234375	1104.476806640625	-467.1007385253906	-1815.392944335938	535.7705078125	-475.8185729980469	-1835.353515625	682.0899047851562	-502.1320190429688	-1941.586059570312	38.40903091430664	-467.0124206542969	-1924.41796875	291.7120056152344	-499.6591796875	-1709.853271484375	36.70455932617188	-411.6634216308594	-1791.475952148438	40.52755355834961	-378.1047668457031	-1817.118774414062	33.47479248046875	-495.175048828125	-2009.717895507812	38.54633712768555	-403.0588684082031	-1806.610595703125	537.3063354492188	-177.9716033935547	-1779.878173828125	815.2776489257812	-152.5957946777344	-1923.725708007812	29.43149185180664	-182.5871276855469	-1836.095581054688	404.3251037597656	-164.7212829589844	-1695.643798828125	40.88935089111328	-250.6478118896484	-1757.758178710938	31.16356468200684	-289.9241943359375	-1789.222045898438	36.28725814819336	-169.9880065917969	-1984.345947265625	33.19292068481445	-226.2519989013672	
78	0.77	-1926.455688476562	1123.654296875	-258.7018127441406	-1931.20556640625	1124.801147460938	-392.8898620605469	-1936.770263671875	1156.368896484375	-328.5397033691406	-1726.029052734375	1360.576171875	-335.0537414550781	-1978.31494140625	1305.30126953125	-327.7841186523438	-1946.660278320312	1598.8427734375	-342.0585021972656	-1762.6103515625	1495.533325195312	-336.1609191894531	-1998.074829101562	1413.51171875	-255.1002502441406	-1955.579345703125	1579.564697265625	-444.30126953125	-1868.921264648438	1567.327026367188	-513.3088989257812	-1885.48291015625	1435.254516601562	-583.5689086914062	-1861.501098632812	1214.814086914062	-602.5529174804688	-1931.00390625	1201.31396484375	-550.61376953125	-1756.81494140625	961.41064453125	-546.6304931640625	-1834.65771484375	932.8847045898438	-580.0392456054688	-1840.72412109375	1099.3056640625	-603.087890625	-1742.875122070312	768.942626953125	-519.0015258789062	-1802.6416015625	858.8826293945312	-576.8426513671875	-1737.778076171875	872.1400756835938	-554.116943359375	-1889.550903320312	1579.708129882812	-161.3929748535156	-1904.469848632812	1505.932250976562	-97.96697235107422	-1908.673828125	1210.737182617188	-77.11850738525391	-1917.5439453125	1209.98779296875	-173.8627624511719	-1756.023071289062	973.2816772460938	-97.49909210205078	-1829.7109375	953.0947875976562	-63.2319450378418	-1881.56494140625	1137.874877929688	-63.20748519897461	-1727.025390625	779.1472778320312	-121.3227462768555	-1722.971923828125	864.2449340820312	-96.45731353759766	-1789.5234375	853.9121704101562	-63.80595397949219	-1909.14453125	1768.651611328125	-260.4984436035156	-1748.2919921875	1844.769775390625	-392.0552978515625	-1748.012329101562	1845.455078125	-262.0866394042969	-1916.102416992188	1771.528564453125	-395.5831298828125	-1841.637573242188	1037.096557617188	-503.1522521972656	-1794.505615234375	1029.819946289062	-147.0797729492188	-1715.296752929688	1104.197631835938	-201.9126739501953	-1732.11572265625	1104.446044921875	-467.1314086914062	-1815.335205078125	535.7560424804688	-475.8237915039062	-1835.282104492188	682.0797119140625	-502.1488647460938	-1941.58349609375	38.40563201904297	-467.0187072753906	-1924.368286132812	291.6914367675781	-499.6579895019531	-1709.8564453125	36.70826721191406	-411.6656799316406	-1791.475219726562	40.52081680297852	-378.1009826660156	-1817.112060546875	33.47357177734375	-495.17041015625	-2009.726440429688	38.53931045532227	-403.0675659179688	-1806.581420898438	537.302978515625	-177.9814147949219	-1779.9892578125	815.2131958007812	-152.5915985107422	-1923.72998046875	29.43119812011719	-182.5864715576172	-1836.060791015625	404.3117980957031	-164.7391967773438	-1695.65283203125	40.88751983642578	-250.6502380371094	-1757.754760742188	31.16799736022949	-289.9207458496094	-1789.225708007812	36.28738403320312	-169.98779296875	-1984.344848632812	33.18314361572266	-226.2529907226562	
79	0.78	-1926.409912109375	1123.653076171875	-258.7680053710938	-1931.1376953125	1124.79541015625	-392.9631958007812	-1936.702880859375	1156.372680664062	-328.6111755371094	-1725.960327148438	1360.546264648438	-335.0401611328125	-1978.202514648438	1305.259887695312	-327.8105773925781	-1946.5244140625	1598.84375	-342.1707763671875	-1762.485595703125	1495.526977539062	-336.1536254882812	-1998.038452148438	1413.505126953125	-255.2308654785156	-1955.36181640625	1579.571166992188	-444.398193359375	-1868.721313476562	1567.354614257812	-513.3505859375	-1885.217041015625	1435.280151367188	-583.6321411132812	-1861.116821289062	1214.815307617188	-602.5656127929688	-1930.650634765625	1201.292114257812	-550.6951904296875	-1756.16796875	961.5602416992188	-546.374267578125	-1833.955444335938	932.9229125976562	-579.892333984375	-1840.24853515625	1099.327026367188	-603.0338134765625	-1741.955078125	769.2105712890625	-518.621826171875	-1801.843139648438	858.972900390625	-576.61279296875	-1737.028564453125	872.3209228515625	-553.8068237304688	-1889.515258789062	1579.691284179688	-161.4323272705078	-1904.478881835938	1505.891357421875	-98.02945709228516	-1908.734619140625	1210.73046875	-77.21119689941406	-1917.6376953125	1209.974243164062	-174.0371856689453	-1756.285522460938	973.1744995117188	-97.64950561523438	-1829.95458984375	953.0413208007812	-63.35529327392578	-1881.711547851562	1137.87109375	-63.34478759765625	-1727.320434570312	779.042236328125	-121.4101715087891	-1723.378540039062	864.11767578125	-96.59874725341797	-1789.840087890625	853.7869262695312	-63.92659759521484	-1909.023803710938	1768.658935546875	-260.5180358886719	-1748.164306640625	1844.745849609375	-392.0360107421875	-1747.88671875	1845.40185546875	-262.0367126464844	-1915.917724609375	1771.556274414062	-395.5907287597656	-1841.5263671875	1037.086303710938	-503.1796264648438	-1794.485961914062	1029.809936523438	-147.1010437011719	-1715.252685546875	1104.183715820312	-201.9105834960938	-1732.042236328125	1104.415649414062	-467.15185546875	-1815.285888671875	535.7423095703125	-475.8251647949219	-1835.221313476562	682.07080078125	-502.1604919433594	-1941.582275390625	38.40042114257812	-467.0237121582031	-1924.329833984375	291.6714172363281	-499.6553039550781	-1709.861450195312	36.71375274658203	-411.6688232421875	-1791.47607421875	40.51470947265625	-378.0985717773438	-1817.104248046875	33.47228622436523	-495.1628723144531	-2009.733276367188	38.53219223022461	-403.073974609375	-1806.554321289062	537.301513671875	-177.9885559082031	-1780.089477539062	815.1583862304688	-152.5916290283203	-1923.732543945312	29.43032073974609	-182.5858917236328	-1836.029541015625	404.2992858886719	-164.7519226074219	-1695.660766601562	40.88562393188477	-250.6520690917969	-1757.751342773438	31.17161178588867	-289.9150695800781	-1789.229858398438	36.28661346435547	-169.9880523681641	-1984.343017578125	33.17473602294922	-226.2544555664062	
